<!DOCTYPE svg PUBLIC "-//W3C//DTD SVG 1.1//EN" "http://www.w3.org/Graphics/SVG/1.1/DTD/svg11.dtd">
<svg version="1.1" xmlns="http://www.w3.org/2000/svg" xmlns:xlink="http://www.w3.org/1999/xlink" x="0px" y="0px" width="280px"
	 height="30.59px" viewBox="0 0 280 30.59" enable-background="new 0 0 280 30.59" xml:space="preserve">
		<path fill="#BB2025" d="M-0.354,1.294c0-0.298,0.255-0.553,0.552-0.553h0.935c0.255,0,0.51,0.255,0.51,0.553v27.403h13.552
			c0.51,0,0.553,0.254,0.553,0.552v0.766c0,0.296-0.255,0.466-0.553,0.466H0.197c-0.297,0-0.552-0.254-0.552-0.553V1.294z
			 M25.941,29.928c0,0.299,0.255,0.553,0.553,0.553h0.892c0.298,0,0.595-0.213,0.595-0.553V1.294c0-0.298-0.255-0.553-0.553-0.553
			h-0.935c-0.297,0-0.553,0.255-0.553,0.553V29.928z M51.092,30.523c0.043,0.128,0.212,0.382,0.468,0.382h0.212
			c0.255,0,0.425-0.17,0.51-0.382L65.324,1.336c0.169-0.34,0-0.595-0.383-0.595h-1.104c-0.254,0-0.425,0.17-0.467,0.298
			L51.771,27.422h-0.085L40.216,1.039c-0.042-0.128-0.213-0.298-0.467-0.298h-1.147c-0.382,0-0.51,0.213-0.34,0.553L51.092,30.523z
			 M75.688,29.928c0,0.299,0.254,0.553,0.552,0.553h17.036c0.298,0,0.553-0.254,0.553-0.553v-0.679c0-0.298-0.255-0.552-0.553-0.552
			H77.728V16.121h13.468c0.297,0,0.552-0.254,0.552-0.553v-0.722c0-0.297-0.255-0.552-0.552-0.552H77.728V2.568h15.549
			c0.298,0,0.553-0.255,0.553-0.552V1.294c0-0.298-0.255-0.553-0.553-0.553H76.24c-0.298,0-0.552,0.255-0.552,0.553V29.928z
			 M101.601,26.742c-0.254,0.298-0.296,0.723-0.084,1.062c0.723,0.893,2.762,3.101,6.457,3.101c4.972,0,9.135-3.398,9.135-9.304
			V1.549c0-0.425-0.339-0.808-0.807-0.808h-5.183c-0.467,0-0.808,0.382-0.808,0.808V21.56c0,2.124-1.317,3.229-2.507,3.229
			c-1.147,0-1.657-0.384-2.166-0.893c-0.34-0.341-0.808-0.297-1.147,0L101.601,26.742 M125.477,29.377l13.298-28.593
			c0.127-0.255,0.425-0.467,0.722-0.467h0.424c0.299,0,0.596,0.212,0.724,0.467l13.298,28.593c0.254,0.551-0.085,1.104-0.723,1.104
			h-4.715c-0.766,0-1.105-0.254-1.488-1.062l-1.529-3.355h-11.556l-1.529,3.398c-0.212,0.51-0.68,1.019-1.529,1.019h-4.674
			C125.561,30.48,125.222,29.928,125.477,29.377 M142.938,20.285l-3.229-7.011h-0.041l-3.188,7.011H142.938z M161.246,26.445
			c-0.34,0.595-0.212,0.765,0.213,1.189c0.977,0.978,4.037,3.271,9.559,3.271c6.245,0,10.027-4.417,10.027-8.793
			c0-5.778-5.268-8.371-8.584-9.687c-3.355-1.36-4.629-2.549-4.629-4.122c0-1.146,1.147-2.167,2.677-2.167
			c2.591,0,5.692,2.337,6.075,2.549c0.383,0.297,1.146-0.085,1.444-0.553l2.167-3.271c0.17-0.297,0.253-1.062-0.257-1.359
			c-1.273-0.935-4.672-3.186-9.092-3.186c-6.54,0-9.812,4.248-9.812,8.455c0,5.098,4.588,7.943,8.241,9.389
			c2.89,1.147,4.375,2.508,4.375,4.29c0,1.487-1.23,2.55-2.93,2.55c-2.805,0-5.863-2.251-6.034-2.336
			c-0.296-0.214-1.104-0.299-1.442,0.255L161.246,26.445 M189.879,29.546c-0.086,0.553,0.298,0.935,0.807,0.935h5.014
			c0.425,0,0.766-0.341,0.807-0.679l1.871-13.129h0.084l7.18,13.767c0.128,0.253,0.467,0.466,0.723,0.466h0.766
			c0.212,0,0.594-0.213,0.721-0.466l7.139-13.767h0.084l1.912,13.129c0.043,0.338,0.424,0.679,0.809,0.679h5.013
			c0.509,0,0.892-0.382,0.807-0.935l-4.801-28.55c-0.042-0.382-0.425-0.679-0.766-0.679h-0.679c-0.213,0-0.596,0.17-0.723,0.424
			l-9.857,18.354h-0.084l-9.857-18.354c-0.128-0.254-0.509-0.424-0.722-0.424h-0.681c-0.338,0-0.721,0.297-0.764,0.679
			L189.879,29.546z M234.569,29.674c0,0.425,0.384,0.807,0.808,0.807h5.098c0.426,0,0.809-0.382,0.809-0.807V1.549
			c0-0.425-0.383-0.808-0.809-0.808h-5.098c-0.424,0-0.808,0.382-0.808,0.808V29.674z M254.111,29.674
			c0,0.425,0.381,0.807,0.807,0.807h5.056c0.469,0,0.807-0.382,0.807-0.807V13.827h0.044l16.781,16.865
			c0.084,0.086,0.426,0.213,0.551,0.213h0.682c0.424,0,0.808-0.341,0.808-0.766V1.549c0-0.425-0.384-0.808-0.808-0.808h-5.099
			c-0.468,0-0.808,0.382-0.808,0.808v15.082h-0.043l-16.95-16.314h-1.063c-0.424,0-0.807,0.34-0.807,0.765L254.111,29.674z"/>
</svg>
